<?xml version="1.0" encoding="UTF-8" standalone="no"?>
<!-- Created with Inkscape (http://www.inkscape.org/) -->

<svg
   version="1.1"
   id="svg3149"
   width="180.78856"
   height="171.92397"
   viewBox="0 0 180.78856 171.92397"
   sodipodi:docname="Morion_Logo.svg"
   inkscape:version="1.1.2 (0a00cf5339, 2022-02-04)"
   xmlns:inkscape="http://www.inkscape.org/namespaces/inkscape"
   xmlns:sodipodi="http://sodipodi.sourceforge.net/DTD/sodipodi-0.dtd"
   xmlns="http://www.w3.org/2000/svg"
   xmlns:svg="http://www.w3.org/2000/svg">
  <defs
     id="defs3153">
    <clipPath
       clipPathUnits="userSpaceOnUse"
       id="clipPath4535">
      <ellipse
         style="fill:#ff0000;stroke:#ff0000;stroke-width:0;stroke-miterlimit:4;stroke-dasharray:none"
         id="ellipse4537"
         cx="129.96735"
         cy="131.73381"
         rx="90.394279"
         ry="85.961983" />
    </clipPath>
    <clipPath
       clipPathUnits="userSpaceOnUse"
       id="clipPath4762">
      <circle
         style="display:inline;fill:#ff0000;stroke:#ff0000;stroke-width:0;stroke-miterlimit:4;stroke-dasharray:none"
         id="circle4764"
         cx="122.36753"
         cy="122.49757"
         r="86" />
    </clipPath>
    <clipPath
       clipPathUnits="userSpaceOnUse"
       id="clipPath934">
      <circle
         style="fill:#ff0000;stroke:#ff0000;stroke-width:0"
         id="circle936"
         cx="129.96735"
         cy="131.73381"
         r="86" />
    </clipPath>
    <clipPath
       clipPathUnits="userSpaceOnUse"
       id="clipPath1139">
      <circle
         style="display:inline;fill:#ff0000;stroke:#ff0000;stroke-width:0"
         id="circle1141"
         cx="129.96735"
         cy="131.73381"
         r="85.436897" />
    </clipPath>
    <clipPath
       clipPathUnits="userSpaceOnUse"
       id="clipPath1216">
      <circle
         style="display:inline;fill:#ff0000;stroke:#ff0000;stroke-width:0"
         id="circle1218"
         cx="122.36753"
         cy="122.49757"
         r="82.826248" />
    </clipPath>
  </defs>
  <sodipodi:namedview
     id="namedview3151"
     pagecolor="#ffffff"
     bordercolor="#666666"
     borderopacity="1.0"
     inkscape:pageshadow="2"
     inkscape:pageopacity="0.0"
     inkscape:pagecheckerboard="0"
     showgrid="false"
     inkscape:zoom="2.2103634"
     inkscape:cx="32.347622"
     inkscape:cy="128.71187"
     inkscape:window-width="1868"
     inkscape:window-height="1016"
     inkscape:window-x="52"
     inkscape:window-y="27"
     inkscape:window-maximized="1"
     inkscape:current-layer="layer1"
     fit-margin-top="0"
     fit-margin-left="0"
     fit-margin-right="0"
     fit-margin-bottom="0" />
  <g
     inkscape:groupmode="layer"
     id="layer1"
     inkscape:label="Color"
     transform="translate(-31.973251,-36.535589)">
    <g
       id="g4760"
       clip-path="url(#clipPath1216)">
      <rect
         style="fill:#c8beb7;stroke:#ff0000;stroke-width:0;stroke-miterlimit:4;stroke-dasharray:none"
         id="rect3602"
         width="85.842964"
         height="145.81941"
         x="122.474"
         y="49.587868" />
      <rect
         style="fill:#e3dedb;stroke:#ff0000;stroke-width:0;stroke-miterlimit:4;stroke-dasharray:none"
         id="rect3602-3"
         width="85.842964"
         height="145.81941"
         x="37.031002"
         y="49.587868" />
    </g>
  </g>
  <g
     inkscape:groupmode="layer"
     inkscape:label="Logo"
     id="g3155"
     transform="translate(-39.573067,-45.771828)"
     style="display:inline">
    <path
       style="fill:#040404"
       d="m 118.46735,253.97407 c -15.12412,-1.63826 -31.743645,-6.44717 -44.500005,-12.87622 -15.96213,-8.04471 -33.68084,-23.58498 -44.46029,-38.99409 -15.336979,-21.92406 -21.9072388,-43.06789 -21.9072388,-70.5 0,-21.18327 4.0585098,-38.468391 13.3834698,-56.999997 C 28.499485,59.666734 44.461275,41.640985 59.467345,31.143479 81.391405,15.806494 102.53523,9.2362388 129.96735,9.2362388 c 27.43211,0 48.57594,6.5702552 70.5,21.9072402 15.00608,10.497506 30.96787,28.523255 38.48406,43.460284 9.32496,18.531606 13.38347,35.816727 13.38347,56.999997 0,27.43211 -6.57026,48.57594 -21.90724,70.5 -10.77945,15.40911 -28.49816,30.94938 -44.46029,38.99409 -9.0977,4.58513 -22.39622,9.12462 -32.15253,10.97536 -8.49736,1.61192 -28.22232,2.67266 -35.34747,1.90086 z m 53.24774,-79.87031 c -0.1721,-2.77878 -0.7057,-4 -1.74774,-4 -0.825,0 -1.455,0.5625 -1.4,1.25 0.055,0.6875 0.21726,4.9625 0.36058,9.5 l 0.26058,8.25 1.38716,-5.5 c 0.76294,-3.025 1.27568,-7.3 1.13942,-9.5 z m -80.851675,-3.86287 c -0.39699,-0.47457 -1.27019,-0.52394 -1.94044,-0.10971 -0.85924,0.53104 -1.04237,2.64076 -0.62095,7.15364 0.87301,9.34888 2.0822,9.9343 2.72426,1.31894 0.30742,-4.125 0.23413,-7.88829 -0.16287,-8.36287 z m -11.89607,-0.13198 c 24.614295,-6.08344 33.894545,-9.56262 45.834135,-17.18332 l 5.33413,-3.40462 5.16587,3.41233 c 7.37547,4.87188 13.95757,7.99321 23.48061,11.13482 12.32709,4.06667 39.55999,10.50546 40.51579,9.57933 0.98983,-0.9591 -7.26648,-5.78853 -16.33053,-9.55235 -11.4022,-4.73474 -29.65027,-14.42555 -36.3148,-19.28533 -5.86868,-4.27945 -14.6852,-13.54773 -14.6852,-15.43768 0,-0.42258 -0.7875,-0.75844 -1.75,-0.74635 -0.9625,0.0121 -3.1,2.06995 -4.75,4.57301 -5.62986,8.54053 -26.163216,21.62106 -48.500005,30.89635 -9.09498,3.77666 -17.13122,8.48732 -16.42593,9.6285 0.32683,0.52883 1.34387,0.7382 2.26009,0.46525 0.91621,-0.27294 8.19084,-2.10892 16.16584,-4.07994 z m 107.500005,-9.08344 c -4.35336,-3.6916 -6.83187,-4.37829 -6.32332,-1.75192 0.34537,1.78366 8.7531,6.74043 9.73674,5.74028 0.32262,-0.32803 -1.21342,-2.12279 -3.41342,-3.98836 z m -110.460165,1.55797 c 3.80117,-1.93922 5.40501,-4.97968 2.62677,-4.97968 -1.74564,0 -9.56089,6.90402 -7.87677,6.95837 0.70941,0.0229 3.07191,-0.86752 5.25,-1.97869 z m 16.23513,-7.61175 c 17.194875,-8.64399 30.085375,-19.0992 33.937785,-27.52624 1.24925,-2.7327 1.36253,-4.97095 0.62164,-12.2819 -0.77383,-7.63599 -0.68196,-9.06559 0.6298,-9.79969 0.98279,-0.55 1.53581,-2.30317 1.53581,-4.86881 0,-2.418231 0.39685,-3.764061 1,-3.391291 0.55,0.33992 1,2.13992 1,4.000001 0,5.04259 1.63752,5.10788 3.82944,0.15268 1.06916,-2.417011 2.44492,-4.704211 3.05724,-5.082641 2.80536,-1.73381 -0.81129,-15.153246 -5.48965,-20.369176 l -2.4225,-2.70086 -2.77431,3.20714 c -3.09494,3.5778 -6.21272,11.36498 -6.20517,15.49845 0.003,1.488076 1.12995,4.363376 2.50495,6.389546 1.375,2.026171 2.48011,4.408661 2.4558,5.294411 -0.0243,0.88575 -0.94671,-0.0998 -2.04979,-2.19004 -1.10308,-2.090271 -2.66353,-4.052961 -3.46767,-4.361541 -0.80414,-0.30858 -3.8885,0.62608 -6.85412,2.07702 -7.05254,3.450491 -17.002514,14.036671 -21.826325,23.221911 -5.21677,9.93349 -9.49235,26.88802 -8.85479,35.1131 0.14802,1.90961 1.53696,1.55658 9.37186,-2.38207 z m 84.821925,2.38207 c 0.63756,-8.22508 -3.63802,-25.17961 -8.85479,-35.1131 -4.82381,-9.18524 -14.77379,-19.77142 -21.82633,-23.221911 -2.96562,-1.45094 -6.09533,-2.36819 -6.95491,-2.03834 -2.63865,1.01254 -5.34405,8.806181 -6.31345,18.187581 -0.82746,8.00782 -0.71842,9.35116 1.05006,12.93577 4.00684,8.12166 14.49896,16.76434 30.95877,25.50168 9.77547,5.1891 11.78019,5.81841 11.94065,3.74832 z"
       id="path3252"
       clip-path="url(#clipPath1139)" />
  </g>
</svg>
